<?xml version="1.0" encoding="UTF-8"?>
<svg width="1024" height="1024" viewBox="0 0 1024 1024" xmlns="http://www.w3.org/2000/svg">
  <!-- Background gradient -->
  <defs>
    <linearGradient id="bgGradient" x1="0%" y1="0%" x2="100%" y2="100%">
      <stop offset="0%" style="stop-color:#4CAF50;stop-opacity:1" />
      <stop offset="100%" style="stop-color:#2E7D32;stop-opacity:1" />
    </linearGradient>
    <linearGradient id="heartGradient" x1="0%" y1="0%" x2="100%" y2="100%">
      <stop offset="0%" style="stop-color:#FF5722;stop-opacity:1" />
      <stop offset="100%" style="stop-color:#D32F2F;stop-opacity:1" />
    </linearGradient>
  </defs>
  
  <!-- Background circle -->
  <circle cx="512" cy="512" r="480" fill="url(#bgGradient)" stroke="#1B5E20" stroke-width="8"/>
  
  <!-- Heart shape -->
  <path d="M512 720 C512 720, 380 600, 380 480 C380 420, 420 380, 480 380 C500 380, 512 390, 512 390 C512 390, 524 380, 544 380 C604 380, 644 420, 644 480 C644 600, 512 720, 512 720 Z" 
        fill="url(#heartGradient)" 
        stroke="#FFFFFF" 
        stroke-width="6"/>
  
  <!-- Activity pulse lines -->
  <g stroke="#FFFFFF" stroke-width="8" fill="none" stroke-linecap="round">
    <!-- Left pulse -->
    <path d="M200 400 L240 400 L260 350 L280 450 L300 300 L320 500 L340 400 L380 400"/>
    <!-- Right pulse -->
    <path d="M644 400 L684 400 L704 350 L724 450 L744 300 L764 500 L784 400 L824 400"/>
    <!-- Bottom pulse -->
    <path d="M400 780 L400 740 L450 720 L350 700 L500 680 L300 660 L400 640 L400 600"/>
  </g>
  
  <!-- Fitness icons around the heart -->
  <!-- Dumbbell icon (top left) -->
  <g transform="translate(300,250) scale(0.8)" fill="#FFFFFF">
    <rect x="0" y="15" width="60" height="10" rx="5"/>
    <circle cx="0" cy="20" r="8"/>
    <circle cx="60" cy="20" r="8"/>
  </g>
  
  <!-- Running figure (top right) -->
  <g transform="translate(650,250) scale(0.8)" fill="#FFFFFF">
    <circle cx="20" cy="10" r="8"/>
    <path d="M20 18 L20 45 M20 30 L35 25 M20 45 L10 60 M20 45 L30 60"/>
  </g>
  
  <!-- Activity tracker (bottom) -->
  <g transform="translate(480,750) scale(1.2)" fill="#FFFFFF">
    <rect x="0" y="0" width="64" height="40" rx="20" stroke="#2E7D32" stroke-width="3"/>
    <rect x="8" y="8" width="48" height="24" rx="4" fill="#4CAF50"/>
    <text x="32" y="24" text-anchor="middle" font-family="Arial" font-size="12" fill="#FFFFFF">♥</text>
  </g>
</svg>